<svg xmlns="http://www.w3.org/2000/svg" height="1200" width="1600" version="1.1" xmlns:xlink="http://www.w3.org/1999/xlink" xmlns:svgjs="http://svgjs.com/svgjs"><rect fill="#ffffff" width="1600" height="1200"></rect><g><path d="M1106.93 341.49C1195.92 445.49 1253.7 581.28 1228.27 700.89 1202.85 819.91 1094.22 922.76 965.37 985.17 836.52 1048.15 688.02 1070.68 582.28 1015.79 477.12 960.32 415.29 826.27 384.09 686.44 352.89 546.61 351.74 400.42 422.23 300.46 493.3 200.5 636.02 147.34 767.18 156.01 898.34 165.26 1017.95 237.48 1106.93 341.49Z" fill="#192fae" opacity="1" stroke-width="4" stroke="none"></path></g><g><path d="M467.23 310.29L1132.77 313.1C1155.25 313.1 1161.41 315.46 1161.41 337.94L1173.47 370.66V862.06C1173.47 884.54 1155.25 902.76 1132.77 902.76H467.23C444.75 902.76 426.53 884.54 426.53 862.06V370.66L437.5 337.94C437.5 315.46 444.75 310.29 467.23 310.29Z" fill="#e1e0eb" opacity="1" stroke-width="4" stroke="none"></path><path d="M467.23 297.24H1132.77C1155.25 297.24 1173.47 315.46 1173.47 337.94V370.66H426.53V337.94C426.53 315.46 444.75 297.24 467.23 297.24Z" fill="#bbbbbc" opacity="1" stroke-width="4" stroke="none"></path><path d="M483.91 347.55C490.92 347.55 496.6 341.86 496.6 334.86 496.6 327.85 490.92 322.17 483.91 322.17 476.91 322.17 471.22 327.85 471.22 334.86 471.22 341.86 476.91 347.55 483.91 347.55Z" fill="#ffffff" opacity="1" stroke-width="4" stroke="none"></path><path d="M525.16 347.55C532.16 347.55 537.85 341.86 537.85 334.86 537.85 327.85 532.16 322.17 525.16 322.17 518.15 322.17 512.47 327.85 512.47 334.86 512.47 341.86 518.15 347.55 525.16 347.55Z" fill="#e2e1ec" opacity="1" stroke-width="4" stroke="none"></path><path d="M566.4 347.55C573.41 347.55 579.09 341.86 579.09 334.86 579.09 327.85 573.41 322.17 566.4 322.17 559.39 322.17 553.71 327.85 553.71 334.86 553.71 341.86 559.39 347.55 566.4 347.55Z" fill="#e2e1ec" opacity="1" stroke-width="4" stroke="none"></path><path d="M706.27 334.58H893.82" stroke="#e2e1ec" stroke-width="4" stroke-linecap="round" stroke-linejoin="round" opacity="1" fill="none"></path></g><g><path d="M799.56 488.74C812.47 488.74 824.88 493.87 834 503.01 843.15 512.15 848.3 524.55 848.3 537.47V634.65C848.44 641.05 847.34 647.42 845.04 653.39 842.73 659.36 839.27 664.82 834.87 669.46 830.44 674.1 825.15 677.82 819.32 680.41 813.46 683.01 807.15 684.42 800.75 684.58 794.36 684.74 787.99 683.63 782.01 681.33 776.03 679.02 770.58 675.57 765.95 671.15 761.29 666.74 757.58 661.45 754.98 655.6 752.38 649.75 750.97 643.44 750.82 637.04V537.47C750.82 524.55 755.96 512.15 765.08 503.01 774.23 493.87 786.64 488.74 799.56 488.74ZM799.56 476.78C783.47 476.79 768.01 483.18 756.65 494.56 745.26 505.95 738.86 521.38 738.86 537.47V537.47 634.65C738.86 650.74 745.26 666.17 756.65 677.56 768.01 688.94 783.47 695.33 799.56 695.35V695.35C815.64 695.33 831.07 688.94 842.46 677.56 853.83 666.17 860.23 650.74 860.26 634.65V537.47C860.23 521.38 853.83 505.95 842.46 494.56 831.07 483.18 815.64 476.79 799.56 476.78V476.78Z" fill="#020306" opacity="1" stroke-width="4" stroke="none"></path><path d="M706.27 584.42H892.85C901.34 584.43 909.47 587.8 915.45 593.8 921.46 599.79 924.84 607.93 924.84 616.41V727.64C924.81 747.54 916.92 766.62 902.83 780.69 888.78 794.76 869.67 802.67 849.79 802.69H749.03C729.11 802.67 710.04 794.76 695.98 780.69 681.9 766.62 673.98 747.54 673.98 727.64V616.41C674.1 607.91 677.57 599.8 683.61 593.82 689.62 587.84 697.78 584.46 706.27 584.42Z" fill="#0d56d3" opacity="1" stroke-width="4" stroke="none"></path><path d="M799.56 660.06C803 660.06 806.35 661.08 809.19 662.99 812.03 664.89 814.27 667.6 815.58 670.77 816.9 673.94 817.23 677.42 816.57 680.79 815.88 684.15 814.24 687.24 811.82 689.67 809.4 692.09 806.29 693.74 802.94 694.41 799.56 695.08 796.09 694.74 792.92 693.43 789.75 692.11 787.03 689.89 785.15 687.04 783.23 684.19 782.22 680.84 782.22 677.41 782.28 672.82 784.1 668.44 787.36 665.2 790.59 661.96 794.98 660.12 799.56 660.06ZM799.56 648.1C793.76 648.1 788.11 649.82 783.26 653.04 778.45 656.26 774.71 660.84 772.47 666.19 770.26 671.55 769.69 677.44 770.82 683.12 771.93 688.8 774.74 694.03 778.84 698.12 782.93 702.22 788.17 705.01 793.85 706.14 799.53 707.27 805.42 706.69 810.77 704.48 816.12 702.26 820.7 698.5 823.93 693.68 827.13 688.87 828.86 683.2 828.86 677.41 828.83 669.64 825.75 662.19 820.25 656.7 814.78 651.21 807.33 648.12 799.56 648.1Z" fill="#020306" opacity="1" stroke-width="4" stroke="none"></path><path d="M798.96 701.92V728.83" stroke="#020306" stroke-width="4" stroke-linecap="round" stroke-linejoin="round" opacity="1" fill="none"></path></g><g><path d="M215.35 708.75C231.12 708.75 243.92 695.95 243.92 680.18 243.92 664.41 231.12 651.61 215.35 651.61 199.58 651.61 186.78 664.41 186.78 680.18 186.78 695.95 199.58 708.75 215.35 708.75Z" fill="#e1e0eb" opacity="1" stroke-width="4" stroke="none"></path></g><g><path d="M383.03 1079.49L337.24 1052.78 388.23 1058.67 388.04 1013.38 409 1056 443.64 1017.59 424.71 1065.46 460.59 1068.78 425.06 1082.96 451.42 1121.91 411.28 1095.4 397.95 1134.45 394.87 1093.51 353.15 1113.54 383.03 1079.49Z" fill="#e1e0eb" opacity="1" stroke-width="4" stroke="none"></path></g><g><path d="M314.99 885.39L269.45 745.21C267.76 739.95 268.23 735.16 270.86 731.5 273.3 728.12 277.34 726.33 282.13 726.33H485.98C496.4 726.33 507.57 734.78 510.95 745.21L556.49 885.39H314.99Z" fill="#2d67be" opacity="1" stroke-width="4" stroke="none"></path><path d="M457.06 902.48C458.56 902.39 459.97 902.2 461.37 901.73 464.94 900.6 467.85 898.07 469.54 894.78 471.23 891.49 471.52 887.64 470.39 884.08H707.85C708.32 885.48 708.6 886.99 708.6 888.49 708.6 896.19 702.31 902.48 694.52 902.48 694.52 902.48 457.06 902.48 457.06 902.48Z" fill="#2d67be" opacity="1" stroke-width="4" stroke="none"></path><path d="M333.86 902.48C325.87 902.48 318.74 897.32 316.3 889.71L314.51 884.08H470.47C470.94 885.48 471.22 886.89 471.22 888.4 471.22 896.19 464.93 902.48 457.23 902.48H333.86Z" fill="#2d67be" opacity="1" stroke-width="4" stroke="none"></path><path d="M332.83 884.17L289.73 751.68H496.21L539.4 884.17H332.83Z" fill="#0016bd" opacity="1" stroke-width="4" stroke="none"></path><path d="M398.46 857.88C391.42 857.88 383.82 852.15 381.47 845.11L366.17 797.88C365.04 794.31 365.32 791.03 367.1 788.58 368.79 786.33 371.52 785.02 374.8 785.02H438.37C445.41 785.02 453.02 790.74 455.37 797.79L470.67 845.02C471.8 848.58 471.52 851.87 469.73 854.31 468.04 856.56 465.32 857.88 462.03 857.88H398.46Z" fill="#6a5c60" opacity="1" stroke-width="4" stroke="none"></path><path d="M314.24 884.08H555.83" stroke="#040404" stroke-width="4" stroke-linecap="round" stroke-linejoin="round" opacity="1" fill="none"></path><path d="M454.98 795.53L429.91 822.29C425.03 827.46 415.83 827.46 407.56 822.29L366.16 796.19" stroke="#0016bd" stroke-width="4" stroke-linecap="round" opacity="1" fill="none"></path><path d="M430.85 821.54L470.38 846.52" stroke="#0016bd" stroke-width="4" stroke-linecap="round" opacity="1" fill="none"></path><path d="M382.12 847.08L405.78 821.82" stroke="#0016bd" stroke-width="4" stroke-linecap="round" opacity="1" fill="none"></path><path d="M457.43 803.42C449.54 803.42 441 796.94 438.37 789.05 437.15 785.3 437.43 781.82 439.31 779.38 441 777.13 443.72 775.82 447.2 775.82 455.08 775.82 463.63 782.29 466.26 790.27 467.48 794.03 467.2 797.5 465.32 799.95 463.63 802.11 460.81 803.42 457.43 803.42Z" fill="#0d56d3" opacity="1" stroke-width="4" stroke="none"></path><path d="M400.16 743.89C396.96 743.89 393.49 741.26 392.46 738.07 391.99 736.57 392.08 735.16 392.83 734.13 393.49 733.19 394.62 732.72 396.02 732.72 399.22 732.72 402.69 735.35 403.72 738.54 404.19 740.04 404.1 741.45 403.35 742.48 402.6 743.33 401.47 743.89 400.16 743.89Z" fill="#040404" opacity="1" stroke-width="4" stroke="none"></path><path d="M457.43 805.39C448.7 805.39 439.22 798.26 436.4 789.52 434.99 785.11 435.37 781.07 437.62 777.97 439.68 775.16 443.07 773.56 447.2 773.56 455.93 773.56 465.41 780.7 468.23 789.43 469.64 793.84 469.26 797.88 467.01 800.98 464.85 803.89 461.47 805.39 457.43 805.39ZM447.1 777.88C444.38 777.88 442.22 778.82 441 780.51 439.59 782.48 439.4 785.2 440.44 788.3 442.69 795.35 450.58 801.26 457.52 801.26 457.71 801.26 457.81 801.26 457.99 801.26 460.15 801.26 462.22 800.32 463.63 798.63 465.04 796.66 465.22 793.94 464.19 790.84 461.84 783.7 454.05 777.88 447.1 777.88Z" fill="#0016bd" opacity="1" stroke-width="4" stroke="none"></path></g><g><path d="M1134.2 438.6C1193.33 446.57 1247.71 405.09 1255.68 345.96 1263.64 286.84 1222.16 232.45 1163.04 224.49 1103.91 216.53 1049.53 258 1041.56 317.13 1033.6 376.25 1075.08 430.64 1134.2 438.6Z" fill="#0016bd" opacity="1" stroke-width="4" stroke="none"></path><path d="M1171.61 283.13L1164.09 338.98C1162.88 347.94 1154.7 354.19 1145.73 352.98 1136.77 351.77 1130.53 343.59 1131.74 334.62L1139.26 278.78C1140.46 269.81 1148.65 263.57 1157.61 264.78 1166.59 265.88 1172.82 274.17 1171.61 283.13Z" fill="#e1e0eb" opacity="1" stroke-width="4" stroke="none"></path><path d="M1139.63 398.31C1148.56 399.52 1156.78 393.25 1157.98 384.32 1159.19 375.38 1152.92 367.16 1143.99 365.96 1135.05 364.76 1126.83 371.02 1125.63 379.96 1124.43 388.89 1130.69 397.11 1139.63 398.31Z" fill="#e1e0eb" opacity="1" stroke-width="4" stroke="none"></path></g><g><path d="M1383.07 576.7L1308.75 564.07C1291.83 561.17 1275.73 572.52 1272.89 589.54L1260.26 663.87C1257.37 680.78 1268.72 696.88 1285.74 699.72L1360.06 712.35C1376.98 715.25 1393.07 703.9 1395.92 686.88L1408.54 612.55C1411.34 595.69 1399.99 579.59 1383.07 576.7Z" fill="#e1e0eb" opacity="1" stroke-width="4" stroke="none"></path><path d="M1352.18 622.38L1368.38 645.25" stroke="#373737" stroke-width="4" stroke-linecap="round" stroke-linejoin="round" opacity="1" fill="none"></path><path d="M1371.72 625.71L1348.85 641.92" stroke="#373737" stroke-width="4" stroke-linecap="round" stroke-linejoin="round" opacity="1" fill="none"></path><path d="M1302.47 613.9L1318.67 636.78" stroke="#373737" stroke-width="4" stroke-linecap="round" stroke-linejoin="round" opacity="1" fill="none"></path><path d="M1322.01 617.24L1299.03 633.5" stroke="#373737" stroke-width="4" stroke-linecap="round" stroke-linejoin="round" opacity="1" fill="none"></path><path d="M1338.44 663.54L1321.2 660.55" stroke="#373737" stroke-width="4" stroke-linecap="round" stroke-linejoin="round" opacity="1" fill="none"></path></g></svg>